<?xml version="1.0" standalone="no"?>
<!DOCTYPE svg PUBLIC "-//W3C//DTD SVG 20010904//EN"
 "http://www.w3.org/TR/2001/REC-SVG-20010904/DTD/svg10.dtd">
<svg version="1.0" xmlns="http://www.w3.org/2000/svg"
 width="700.000000pt" height="700.000000pt" viewBox="0 0 700.000000 700.000000"
 preserveAspectRatio="xMidYMid meet">
<metadata>
Created by potrace 1.14, written by Peter Selinger 2001-2017
</metadata>
<g transform="translate(0.000000,700.000000) scale(0.100000,-0.100000)"
fill="#000000" stroke="none">
<path d="M550 3823 c1 -4 23 -33 51 -63 l50 -55 -3 60 -3 60 -47 3 c-27 2 -48
-1 -48 -5z"/>
<path d="M2813 3460 c-12 -5 -29 -23 -38 -41 -40 -77 33 -167 105 -129 13 7
21 7 25 0 4 -6 11 -8 16 -4 6 4 6 10 -1 18 -7 9 -7 22 1 43 14 41 -10 99 -46
113 -31 12 -33 12 -62 0z m75 -38 c18 -24 16 -82 -4 -82 -10 0 -14 -6 -11 -14
8 -20 -27 -30 -53 -16 -30 16 -41 53 -28 90 16 48 65 59 96 22z"/>
<path d="M2964 3455 c-4 -9 -4 -43 -2 -77 4 -48 9 -65 27 -79 31 -26 57 -24
86 6 22 21 25 33 25 95 0 53 -3 71 -12 68 -9 -3 -14 -30 -16 -76 -2 -59 -6
-74 -22 -82 -14 -8 -26 -7 -40 0 -17 9 -20 21 -20 85 0 70 -12 97 -26 60z"/>
<path d="M3184 3435 c-8 -20 -26 -61 -39 -92 -29 -64 -28 -63 -15 -63 6 0 26
33 44 73 l33 72 15 -35 c9 -19 23 -52 32 -72 17 -40 42 -54 31 -17 -12 38 -74
169 -80 169 -3 0 -13 -16 -21 -35z"/>
<path d="M3320 3375 l0 -95 55 0 c65 0 74 17 13 22 l-43 3 -3 83 c-4 114 -22
104 -22 -13z"/>
<path d="M3460 3375 c0 -57 4 -95 10 -95 6 0 10 38 10 95 0 57 -4 95 -10 95
-6 0 -10 -38 -10 -95z"/>
<path d="M3510 3461 c0 -5 12 -11 28 -13 27 -3 27 -4 30 -85 4 -110 22 -107
22 2 l0 85 30 0 c17 0 30 5 30 10 0 6 -30 10 -70 10 -38 0 -70 -4 -70 -9z"/>
<path d="M3660 3464 c0 -3 14 -25 30 -49 23 -33 30 -55 30 -89 0 -25 5 -46 10
-46 6 0 10 22 10 48 0 26 4 52 8 58 5 5 19 26 31 47 17 28 19 37 8 37 -7 0
-22 -16 -33 -35 -10 -19 -21 -35 -24 -35 -3 0 -15 16 -28 35 -19 31 -42 46
-42 29z"/>
<path d="M3950 3375 c0 -57 4 -95 10 -95 6 0 10 18 10 40 0 39 1 40 36 40 45
0 41 24 -5 28 -28 3 -32 6 -29 30 3 24 8 27 46 30 61 5 52 22 -13 22 l-55 0 0
-95z"/>
<path d="M4090 3375 c0 -57 4 -95 10 -95 6 0 10 38 10 95 0 57 -4 95 -10 95
-6 0 -10 -38 -10 -95z"/>
<path d="M4160 3375 c0 -57 4 -95 10 -95 6 0 10 28 10 65 0 36 3 65 8 65 4 0
27 -30 51 -65 24 -36 47 -65 52 -65 5 0 9 43 9 95 0 57 -4 95 -10 95 -6 0 -10
-28 -10 -65 0 -36 -3 -65 -7 -65 -5 0 -28 30 -52 65 -24 36 -47 65 -52 65 -5
0 -9 -43 -9 -95z"/>
<path d="M4376 3397 c-19 -41 -37 -85 -41 -96 -10 -34 13 -24 29 12 8 17 22
50 31 72 l18 40 33 -72 c18 -40 38 -73 44 -73 5 0 10 1 10 3 0 9 -73 173 -81
181 -4 5 -23 -24 -43 -67z"/>
<path d="M4530 3375 c0 -109 18 -130 22 -27 l3 67 45 -64 c65 -93 71 -91 68
21 -3 106 -20 122 -28 27 l-5 -62 -45 67 c-25 36 -48 66 -52 66 -5 0 -8 -43
-8 -95z"/>
<path d="M4752 3460 c-13 -5 -30 -26 -38 -46 -36 -87 49 -170 117 -115 30 24
19 39 -13 17 -30 -21 -44 -20 -68 4 -20 20 -27 74 -12 96 17 26 48 33 77 18
32 -16 46 -10 24 11 -19 19 -60 26 -87 15z"/>
<path d="M4890 3375 c0 -57 4 -95 10 -95 6 0 10 38 10 95 0 57 -4 95 -10 95
-6 0 -10 -38 -10 -95z"/>
<path d="M4977 3382 c-39 -93 -42 -102 -28 -102 4 0 23 33 41 73 l32 72 28
-60 c16 -33 29 -66 29 -72 1 -7 8 -13 16 -13 17 0 19 -7 -40 128 -15 34 -31
62 -34 62 -4 0 -23 -39 -44 -88z"/>
<path d="M5140 3375 l0 -95 55 0 c30 0 55 5 55 10 0 6 -20 10 -45 10 l-45 0 0
85 c0 50 -4 85 -10 85 -6 0 -10 -38 -10 -95z"/>
<path d="M5413 3455 c-13 -9 -23 -27 -23 -41 0 -19 10 -29 47 -47 55 -26 64
-43 29 -58 -21 -10 -30 -9 -51 5 -34 23 -47 10 -16 -15 28 -23 59 -24 89 -3
41 29 23 67 -45 94 -36 14 -43 34 -15 48 18 10 43 5 53 -11 4 -5 12 -8 18 -6
18 6 -9 37 -39 44 -15 3 -34 -1 -47 -10z"/>
<path d="M5550 3375 l0 -95 65 0 c37 0 65 4 65 10 0 6 -25 10 -55 10 -54 0
-55 0 -55 30 0 28 2 30 40 30 29 0 40 4 40 15 0 11 -11 15 -41 15 -38 0 -40 1
-37 28 3 25 7 27 56 30 75 4 65 22 -13 22 l-65 0 0 -95z"/>
<path d="M5730 3375 c0 -57 4 -95 10 -95 6 0 10 18 10 40 0 38 2 40 31 40 26
0 33 -6 47 -40 9 -22 20 -40 25 -40 12 0 8 29 -8 59 -13 26 -13 30 0 41 22 18
18 57 -7 74 -12 9 -42 16 -65 16 l-43 0 0 -95z m95 61 c24 -18 13 -46 -19 -46
-13 0 -31 -3 -40 -6 -13 -5 -16 1 -16 30 0 33 2 36 28 36 16 0 37 -6 47 -14z"/>
<path d="M5880 3467 c0 -13 79 -182 86 -184 5 -1 26 37 47 85 39 93 42 102 28
102 -4 0 -23 -33 -41 -72 l-33 -73 -33 73 c-18 39 -38 72 -44 72 -5 0 -10 -1
-10 -3z"/>
<path d="M6080 3375 c0 -57 4 -95 10 -95 6 0 10 38 10 95 0 57 -4 95 -10 95
-6 0 -10 -38 -10 -95z"/>
<path d="M6166 3448 c-19 -16 -29 -36 -33 -65 -5 -37 -2 -45 25 -73 35 -35 69
-38 103 -11 32 26 19 36 -18 14 -28 -16 -32 -16 -56 -1 -31 21 -42 61 -25 95
17 35 49 45 83 27 32 -17 46 -10 24 11 -27 28 -73 29 -103 3z"/>
<path d="M6320 3375 l0 -95 65 0 c78 0 88 18 13 22 -49 3 -53 5 -56 31 -3 26
-1 27 37 27 30 0 41 4 41 15 0 11 -11 15 -41 15 -38 0 -40 1 -37 28 3 25 7 27
56 30 75 4 65 22 -13 22 l-65 0 0 -95z"/>
<path d="M760 2948 c-129 -144 -236 -265 -238 -270 -2 -4 88 -8 200 -8 l203
-1 138 143 137 143 138 -143 137 -143 203 1 c129 0 202 4 200 10 -5 15 -448
520 -456 519 -4 0 -38 -37 -75 -82 -37 -45 -83 -99 -101 -120 l-32 -38 -104
125 c-57 69 -107 126 -110 126 -3 0 -111 -118 -240 -262z"/>
<path d="M1650 3096 l0 -115 111 -128 c61 -70 115 -132 120 -137 5 -6 9 94 9
242 l0 252 -120 0 -120 0 0 -114z"/>
<path d="M1917 3203 c-4 -3 -7 -30 -7 -60 l0 -53 250 0 250 0 0 -40 0 -40
-247 -2 -248 -3 -3 -57 -3 -58 376 0 376 0 -3 158 -3 157 -366 3 c-201 1 -368
-1 -372 -5z"/>
<path d="M2750 2945 l0 -265 120 0 120 0 0 265 0 265 -120 0 -120 0 0 -265z"/>
<path d="M3010 3150 l0 -60 250 0 250 0 0 -40 0 -40 -250 0 -250 0 0 -60 0
-59 157 -3 157 -3 71 -100 71 -100 123 -3 c97 -2 121 0 115 10 -4 7 -34 52
-66 100 -32 48 -58 90 -58 93 0 3 29 5 65 5 l65 0 0 160 0 160 -350 0 -350 0
0 -60z"/>
<path d="M3800 2945 l0 -265 120 0 120 0 0 265 0 265 -120 0 -120 0 0 -265z"/>
<path d="M4070 3150 l0 -60 300 0 300 0 0 60 0 60 -300 0 -300 0 0 -60z"/>
<path d="M4760 3050 l0 -160 145 0 145 0 0 160 0 160 -145 0 -145 0 0 -160z"/>
<path d="M5080 3150 l0 -60 250 0 250 0 0 60 0 60 -250 0 -250 0 0 -60z"/>
<path d="M5670 3050 l0 -160 145 0 145 0 0 160 0 160 -145 0 -145 0 0 -160z"/>
<path d="M5987 3203 c-4 -3 -7 -30 -7 -60 l0 -53 250 0 250 0 0 60 0 60 -243
0 c-134 0 -247 -3 -250 -7z"/>
<path d="M4070 2950 l0 -60 265 0 265 0 0 60 0 60 -265 0 -265 0 0 -60z"/>
<path d="M5080 2950 l0 -60 130 0 130 0 0 -45 0 -45 -290 0 -290 0 0 -60 0
-60 410 0 410 0 0 165 0 165 -250 0 -250 0 0 -60z"/>
<path d="M5980 2950 l0 -60 135 0 135 0 0 -45 0 -45 -290 0 -290 0 0 -60 0
-60 405 0 405 0 0 165 0 165 -250 0 -250 0 0 -60z"/>
<path d="M4070 2740 l0 -60 300 0 300 0 0 60 0 60 -300 0 -300 0 0 -60z"/>
</g>
</svg>
